<?xml version="1.0" encoding="UTF-8"?>
<!DOCTYPE svg PUBLIC "-//W3C//DTD SVG 1.1//EN" "http://www.w3.org/Graphics/SVG/1.1/DTD/svg11.dtd">
<svg version="1.2" width="185.84mm" height="91.1mm" viewBox="1017 892 18584 9110" preserveAspectRatio="xMidYMid" fill-rule="evenodd" stroke-width="28.222" stroke-linejoin="round" xmlns="http://www.w3.org/2000/svg" xmlns:ooo="http://xml.openoffice.org/svg/export" xmlns:xlink="http://www.w3.org/1999/xlink" xmlns:presentation="http://sun.com/xmlns/staroffice/presentation" xmlns:smil="http://www.w3.org/2001/SMIL20/" xmlns:anim="urn:oasis:names:tc:opendocument:xmlns:animation:1.0" xml:space="preserve">
 <defs class="EmbeddedBulletChars">
  <g id="bullet-char-template-57356" transform="scale(0.00048828125,-0.00048828125)">
   <path d="M 580,1141 L 1163,571 580,0 -4,571 580,1141 Z"/>
  </g>
  <g id="bullet-char-template-57354" transform="scale(0.00048828125,-0.00048828125)">
   <path d="M 8,1128 L 1137,1128 1137,0 8,0 8,1128 Z"/>
  </g>
  <g id="bullet-char-template-10146" transform="scale(0.00048828125,-0.00048828125)">
   <path d="M 174,0 L 602,739 174,1481 1456,739 174,0 Z M 1358,739 L 309,1346 659,739 1358,739 Z"/>
  </g>
  <g id="bullet-char-template-10132" transform="scale(0.00048828125,-0.00048828125)">
   <path d="M 2015,739 L 1276,0 717,0 1260,543 174,543 174,936 1260,936 717,1481 1274,1481 2015,739 Z"/>
  </g>
  <g id="bullet-char-template-10007" transform="scale(0.00048828125,-0.00048828125)">
   <path d="M 0,-2 C -7,14 -16,27 -25,37 L 356,567 C 262,823 215,952 215,954 215,979 228,992 255,992 264,992 276,990 289,987 310,991 331,999 354,1012 L 381,999 492,748 772,1049 836,1024 860,1049 C 881,1039 901,1025 922,1006 886,937 835,863 770,784 769,783 710,716 594,584 L 774,223 C 774,196 753,168 711,139 L 727,119 C 717,90 699,76 672,76 641,76 570,178 457,381 L 164,-76 C 142,-110 111,-127 72,-127 30,-127 9,-110 8,-76 1,-67 -2,-52 -2,-32 -2,-23 -1,-13 0,-2 Z"/>
  </g>
  <g id="bullet-char-template-10004" transform="scale(0.00048828125,-0.00048828125)">
   <path d="M 285,-33 C 182,-33 111,30 74,156 52,228 41,333 41,471 41,549 55,616 82,672 116,743 169,778 240,778 293,778 328,747 346,684 L 369,508 C 377,444 397,411 428,410 L 1163,1116 C 1174,1127 1196,1133 1229,1133 1271,1133 1292,1118 1292,1087 L 1292,965 C 1292,929 1282,901 1262,881 L 442,47 C 390,-6 338,-33 285,-33 Z"/>
  </g>
  <g id="bullet-char-template-9679" transform="scale(0.00048828125,-0.00048828125)">
   <path d="M 813,0 C 632,0 489,54 383,161 276,268 223,411 223,592 223,773 276,916 383,1023 489,1130 632,1184 813,1184 992,1184 1136,1130 1245,1023 1353,916 1407,772 1407,592 1407,412 1353,268 1245,161 1136,54 992,0 813,0 Z"/>
  </g>
  <g id="bullet-char-template-8226" transform="scale(0.00048828125,-0.00048828125)">
   <path d="M 346,457 C 273,457 209,483 155,535 101,586 74,649 74,723 74,796 101,859 155,911 209,963 273,989 346,989 419,989 480,963 531,910 582,859 608,796 608,723 608,648 583,586 532,535 482,483 420,457 346,457 Z"/>
  </g>
  <g id="bullet-char-template-8211" transform="scale(0.00048828125,-0.00048828125)">
   <path d="M -4,459 L 1135,459 1135,606 -4,606 -4,459 Z"/>
  </g>
  <g id="bullet-char-template-61548" transform="scale(0.00048828125,-0.00048828125)">
   <path d="M 173,740 C 173,903 231,1043 346,1159 462,1274 601,1332 765,1332 928,1332 1067,1274 1183,1159 1299,1043 1357,903 1357,740 1357,577 1299,437 1183,322 1067,206 928,148 765,148 601,148 462,206 346,322 231,437 173,577 173,740 Z"/>
  </g>
 </defs>
 <g class="Page">
  <g class="Group">
   <g class="com.sun.star.drawing.ClosedBezierShape">
    <g id="id3">
     <rect class="BoundingBox" stroke="none" fill="none" x="2238" y="4713" width="2782" height="2783"/>
     <path fill="#fff" stroke="none" d="M 3631,4714 L 3626,4714 C 3874,4714 4113,4777 4325,4898 4537,5020 4712,5196 4834,5408 4956,5620 5019,5858 5019,6102 L 5019,6106 5019,6106 C 5019,6350 4956,6588 4834,6800 4712,7012 4537,7188 4325,7310 4113,7431 3874,7494 3631,7494 3383,7494 3144,7431 2932,7310 2721,7188 2545,7012 2423,6800 2301,6588 2238,6350 2238,6106 2238,5858 2301,5620 2423,5408 2545,5196 2721,5020 2932,4898 3144,4777 3383,4714 3626,4714 L 3631,4714 Z"/>
    </g>
   </g>
   <g class="com.sun.star.drawing.ClosedBezierShape">
    <g id="id4">
     <rect class="BoundingBox" stroke="none" fill="none" x="1017" y="892" width="5211" height="7821"/>
     <path fill="#fff" stroke="none" d="M 3617,892 L 2554,2735 4776,4953 C 5069,5245 5249,5656 5249,6102 5249,7003 4519,7733 3617,7733 2721,7733 1990,7003 1990,6102 1990,5205 2721,4475 3617,4475 3698,4475 3775,4479 3852,4493 L 2387,3033 1364,4799 C 1143,5182 1017,5629 1017,6102 1017,7539 2184,8711 3617,8711 5055,8711 6227,7539 6227,6102 6227,5629 6101,5182 5875,4799 L 3617,892 Z"/>
    </g>
   </g>
   <g class="com.sun.star.drawing.ClosedBezierShape">
    <g id="id5">
     <rect class="BoundingBox" stroke="none" fill="none" x="6884" y="2365" width="3815" height="5721"/>
     <path fill="#fff" stroke="none" d="M 10697,2366 L 9607,2366 9607,6863 C 9607,6935 9548,6999 9472,6999 L 8111,6999 C 8038,6999 7975,6935 7975,6863 L 7975,5498 C 7975,5421 8038,5363 8111,5363 L 9336,5363 9336,4272 8111,4272 C 7430,4272 6885,4822 6885,5498 L 6885,6863 C 6885,7535 7430,8085 8111,8085 L 9472,8085 C 10152,8085 10697,7535 10697,6863 L 10697,2366 Z"/>
    </g>
   </g>
   <g class="com.sun.star.drawing.ClosedBezierShape">
    <g id="id6">
     <rect class="BoundingBox" stroke="none" fill="none" x="11526" y="8287" width="6852" height="1715"/>
     <path fill="#fff" stroke="none" d="M 12171,8355 L 12338,8355 12338,9437 C 12338,9608 12324,9725 12297,9788 12270,9851 12230,9905 12167,9946 12103,9982 12027,10000 11941,10000 11869,10000 11806,9991 11738,9964 11675,9937 11603,9896 11527,9833 L 11612,9707 C 11698,9766 11770,9806 11829,9829 11865,9847 11901,9851 11941,9851 11986,9851 12027,9838 12067,9811 12108,9784 12135,9748 12148,9703 12167,9657 12171,9563 12171,9432 L 12171,8355 Z M 12171,8355 L 12171,8355 Z M 12613,8774 L 12770,8774 12770,9329 C 12770,9464 12779,9554 12793,9608 12815,9680 12861,9739 12924,9784 12987,9824 13063,9842 13149,9842 13239,9842 13311,9824 13374,9784 13433,9743 13478,9689 13501,9621 13514,9576 13523,9477 13523,9329 L 13523,8774 13685,8774 13685,9356 C 13685,9518 13663,9644 13627,9730 13586,9811 13528,9874 13446,9923 13370,9968 13271,9991 13149,9991 13032,9991 12933,9968 12852,9923 12770,9874 12712,9811 12671,9725 12631,9644 12613,9513 12613,9347 L 12613,8774 Z M 12613,8774 L 12613,8774 Z M 13951,8774 L 14109,8774 14109,8986 C 14172,8905 14244,8846 14316,8806 14397,8765 14478,8747 14569,8747 14663,8747 14744,8770 14812,8815 14884,8860 14938,8918 14974,8995 15006,9072 15024,9189 15024,9351 L 15024,9959 14866,9959 14866,9392 C 14866,9256 14857,9166 14843,9121 14825,9045 14794,8986 14740,8945 14690,8905 14618,8887 14537,8887 14442,8887 14357,8918 14280,8977 14204,9036 14154,9112 14131,9202 14118,9261 14109,9369 14109,9522 L 14109,9959 13951,9959 13951,8774 Z M 13951,8774 L 13951,8774 Z M 16502,8315 L 16502,9959 16349,9959 16349,9757 C 16281,9833 16209,9892 16123,9932 16042,9973 15952,9991 15853,9991 15682,9991 15533,9932 15411,9811 15290,9689 15227,9536 15227,9365 15227,9193 15290,9049 15411,8927 15538,8806 15686,8747 15862,8747 15961,8747 16051,8765 16132,8806 16214,8846 16286,8909 16349,8995 L 16349,8315 16502,8315 Z M 16502,8315 L 16502,8315 Z M 15871,8891 C 15785,8891 15704,8914 15628,8954 15556,8995 15497,9054 15452,9130 15407,9207 15384,9283 15384,9369 15384,9450 15407,9531 15452,9612 15497,9689 15556,9748 15632,9788 15704,9833 15785,9851 15871,9851 15957,9851 16042,9833 16119,9788 16195,9748 16254,9689 16295,9621 16340,9545 16358,9464 16358,9374 16358,9238 16313,9121 16218,9031 16123,8936 16011,8891 15871,8891 Z M 15871,8891 L 15871,8891 Z M 16831,8287 C 16867,8287 16899,8296 16926,8324 16948,8346 16962,8378 16962,8409 16962,8445 16948,8472 16926,8499 16899,8522 16867,8535 16831,8535 16795,8535 16768,8522 16741,8499 16714,8472 16705,8445 16705,8409 16705,8378 16714,8346 16741,8324 16768,8296 16795,8287 16831,8287 Z M 16831,8287 L 16831,8287 Z M 16754,8774 L 16912,8774 16912,9959 16754,9959 16754,8774 Z M 16754,8774 L 16754,8774 Z M 18377,8774 L 18377,9959 18224,9959 18224,9757 C 18156,9833 18079,9892 17998,9932 17917,9973 17827,9991 17728,9991 17557,9991 17408,9932 17286,9811 17160,9689 17101,9536 17101,9365 17101,9193 17160,9049 17286,8927 17412,8806 17561,8747 17732,8747 17836,8747 17926,8765 18007,8806 18088,8846 18160,8909 18224,8995 L 18224,8774 18377,8774 Z M 18377,8774 L 18377,8774 Z M 17746,8891 C 17660,8891 17579,8914 17502,8954 17430,8995 17367,9054 17327,9130 17282,9207 17259,9283 17259,9369 17259,9450 17282,9531 17327,9612 17372,9689 17430,9748 17507,9788 17579,9833 17660,9851 17746,9851 17831,9851 17913,9833 17989,9788 18070,9748 18129,9689 18169,9621 18210,9545 18233,9464 18233,9374 18233,9238 18183,9121 18093,9031 17998,8936 17881,8891 17746,8891 Z"/>
    </g>
   </g>
   <g class="com.sun.star.drawing.PolyPolygonShape">
    <g id="id7">
     <rect class="BoundingBox" stroke="none" fill="none" x="18556" y="8769" width="147" height="1232"/>
     <path fill="#fff" stroke="none" d="M 18701,9923 L 18701,8846 18701,8770 18557,8770 18557,8846 18557,9923 18557,10000 18701,10000 18701,9923 Z"/>
    </g>
   </g>
   <g class="com.sun.star.drawing.ClosedBezierShape">
    <g id="id8">
     <rect class="BoundingBox" stroke="none" fill="none" x="11238" y="4267" width="3814" height="3815"/>
     <path fill="#fff" stroke="none" d="M 11238,4268 L 13825,4268 C 14496,4268 15051,4813 15051,5489 L 15051,6854 C 15051,7530 14496,8080 13825,8080 L 12459,8080 C 11783,8080 11238,7530 11238,6854 11238,6178 11783,5624 12459,5624 L 13523,5624 13523,6719 12459,6719 C 12383,6719 12324,6778 12324,6854 12324,6931 12383,6990 12459,6990 L 13825,6990 13825,6990 13825,6990 13825,6990 C 13829,6990 13829,6990 13834,6990 L 13834,6990 13834,6990 13839,6990 13839,6990 13839,6990 13843,6990 13843,6990 13843,6990 13848,6990 13848,6990 C 13852,6990 13852,6990 13852,6990 L 13852,6990 C 13852,6990 13852,6985 13857,6985 L 13857,6985 13857,6985 13857,6985 C 13861,6985 13861,6985 13861,6985 L 13861,6985 13866,6985 13866,6985 13870,6985 13870,6985 C 13870,6981 13870,6981 13870,6981 L 13870,6981 C 13875,6981 13875,6981 13875,6981 L 13875,6981 13875,6981 13875,6981 C 13879,6981 13879,6981 13879,6981 L 13879,6981 C 13884,6976 13884,6976 13884,6976 L 13884,6976 13888,6976 13888,6976 13888,6972 13888,6972 13893,6972 C 13933,6949 13960,6904 13960,6854 L 13960,5489 C 13960,5417 13897,5354 13825,5354 L 11238,5354 11238,4268 Z"/>
    </g>
   </g>
   <g class="com.sun.star.drawing.ClosedBezierShape">
    <g id="id9">
     <rect class="BoundingBox" stroke="none" fill="none" x="15591" y="4267" width="3815" height="3815"/>
     <path fill="#fff" stroke="none" d="M 19404,7364 L 19404,6990 16813,6990 C 16741,6990 16678,6931 16678,6854 L 16678,5489 16678,5489 C 16678,5439 16705,5394 16745,5372 16750,5372 16750,5372 16750,5372 16750,5372 16750,5367 16754,5367 L 16754,5367 16754,5367 16759,5367 C 16759,5363 16759,5363 16763,5363 L 16763,5363 16763,5363 16768,5363 16768,5363 C 16772,5363 16772,5358 16772,5358 16777,5358 16777,5358 16777,5358 L 16781,5358 16786,5358 16786,5358 16790,5354 16795,5354 16795,5354 C 16799,5354 16799,5354 16799,5354 L 16804,5354 16804,5354 16808,5354 16813,5354 16813,5354 18178,5354 C 18255,5354 18314,5417 18314,5489 18314,5565 18255,5624 18178,5624 L 17115,5624 17115,6719 18178,6719 C 18854,6719 19404,6165 19404,5489 19404,4813 18854,4268 18178,4268 L 16813,4268 C 16141,4268 15592,4813 15592,5489 L 15592,6854 C 15592,7530 16141,8080 16813,8080 L 18341,8080 C 18381,7967 18449,7868 18539,7787 18656,7688 18791,7625 18936,7575 19053,7535 19305,7472 19404,7364 Z"/>
    </g>
   </g>
   <g class="com.sun.star.drawing.ClosedBezierShape">
    <g id="id10">
     <rect class="BoundingBox" stroke="none" fill="none" x="18457" y="7372" width="1144" height="1360"/>
     <path fill="#fff" stroke="none" d="M 19583,7373 C 19705,8242 19141,8846 18749,8711 18745,8707 18736,8707 18731,8702 18722,8698 18713,8689 18709,8684 18704,8675 18704,8666 18700,8653 18596,8031 19146,8017 19430,7693 19313,7792 19137,7864 18988,7945 18871,8013 18713,8139 18655,8260 18619,8333 18605,8436 18614,8585 18447,8567 18357,8166 18641,7913 18930,7657 19457,7688 19583,7373 Z"/>
    </g>
   </g>
  </g>
 </g>
</svg>